<svg id="Group_24" data-name="Group 24" xmlns="http://www.w3.org/2000/svg" xmlns:xlink="http://www.w3.org/1999/xlink" width="282.774" height="307.46" viewBox="0 0 282.774 307.46">
  <defs>
    <clipPath id="clip-path">
      <rect id="Rectangle_20" data-name="Rectangle 20" width="282.774" height="307.46" fill="#eb4a4a"/>
    </clipPath>
  </defs>
  <g id="Group_23" data-name="Group 23" clip-path="url(#clip-path)">
    <path id="Path_13" data-name="Path 13" d="M0,0V12.585c.488,2.751,1.178,5.485,1.417,8.253C2.034,28.07,2.3,35.328,2.982,42.55,3.783,51,4.9,59.406,5.826,67.843c.331,2.969.525,5.956.8,8.935C7.594,87.188,8.615,97.59,9.536,108c.571,6.533.911,13.092,1.528,19.616.884,9.249,1.97,18.489,2.872,27.738.589,6.061.966,12.149,1.537,18.218.92,9.712,1.933,19.415,2.881,29.127.543,5.607,1,11.223,1.528,16.83.957,10.288,1.951,20.577,2.9,30.874.543,5.834,1,11.686,1.519,17.528.23,2.515.4,5.039.819,7.528a2.768,2.768,0,0,0,1.638,1.86c16.135,4.3,32.3,8.472,48.433,12.725,8.532,2.253,17.028,4.638,25.542,6.961q17.935,4.886,35.86,9.773a4.62,4.62,0,0,1,1.114.681h7.363c6.222-1.86,12.407-3.834,18.666-5.546q20.7-5.673,41.456-11.127c13.484-3.563,27-7.048,40.49-10.585,3.461-.9,6.931-1.808,10.336-2.882a2.812,2.812,0,0,0,1.648-1.869c.608-5.362.985-10.751,1.565-16.114.9-8.437,2-16.856,2.844-25.293.451-4.472.414-9,.847-13.467.865-8.786,1.924-17.555,2.853-26.332.341-3.205.515-6.428.81-9.642.957-10.4,1.97-20.8,2.9-31.214.571-6.419.92-12.856,1.528-19.275.893-9.362,1.961-18.716,2.872-28.079.58-5.956.976-11.921,1.546-17.878.911-9.59,1.933-19.179,2.872-28.777.543-5.6,1.068-11.214,1.519-16.821.792-9.755,1.528-19.511,2.319-29.258.018-.253.414-.48.635-.716V0ZM214.34,228.988c-16.531,4.306-32.942,8.576-49.363,12.856-7.235,1.886-14.46,3.808-21.7,5.668a6.7,6.7,0,0,1-3.129.314q-33.039-8.581-66.032-17.319c-6.369-1.694-6-1.834-6.443-8.192-.654-9.546-1.868-19.048-2.752-28.577-.561-5.965-.966-11.939-1.463-18.2H98.44c.58,6.175,1.141,12.227,1.7,18.288.258,2.76.341,5.546.865,8.262.147.786,1.436,1.712,2.384,1.974,12.2,3.275,24.382,6.629,36.7,9.494,2.448.568,5.449-.638,8.127-1.3,10.051-2.489,20.019-5.266,30.116-7.555,4.013-.917,3.82-3.721,4.124-6.262,1.16-9.721,2.071-19.467,3.139-29.2.479-4.332,1.1-8.638,1.721-13.424H182.5c-38.9.009-77.795-.035-116.7.1-3.8.017-4.547-1.223-4.8-4.55-.589-7.782-1.767-15.52-2.77-23.266-.322-2.55.239-3.843,3.442-3.773,8.339.192,16.687.114,25.026.052q42.828-.328,85.664-.76c5.716-.07,11.432-.6,17.847-.961.893-11.24,1.795-22.681,2.734-34.489H54.508c-.764-10.376-1.5-20.437-2.255-30.7H230.512c-5.394,57.214-10.769,114.245-16.172,171.52" fill="#eb4a4a"/>
  </g>
</svg>
