<svg id="Group_4" data-name="Group 4" xmlns="http://www.w3.org/2000/svg" xmlns:xlink="http://www.w3.org/1999/xlink" width="89.153" height="88.945" viewBox="0 0 89.153 88.945">
  <defs>
    <clipPath id="clip-path">
      <rect id="Rectangle_7" data-name="Rectangle 7" width="89.153" height="88.945" fill="#eb4a4a"/>
    </clipPath>
  </defs>
  <g id="Group_3" data-name="Group 3" clip-path="url(#clip-path)">
    <path id="Path_5" data-name="Path 5" d="M87.949,54.533C84.053,70.8,73.806,81.574,58.011,87.007c-2.55.872-5.26,1.292-7.964,1.938V53.84H60.715c.539-4.175,1.065-8.244,1.6-12.432H50.027c0-3.1-.127-6.086.033-9.063.18-3.236,1.831-4.714,5.087-4.841,2.2-.08,4.408-.067,6.612-.1.306,0,.613-.027.972-.047,0-3.576.007-7.052-.027-10.534a.86.86,0,0,0-.6-.579c-3.536-.16-7.072-.433-10.6-.346a14.358,14.358,0,0,0-9.116,3.416,14.9,14.9,0,0,0-5.141,11.113c-.173,3.3-.093,6.612-.127,9.915-.007.34,0,.679,0,1.112H26.455V53.907H37.076V88.392a1.693,1.693,0,0,1-.293.02,42.518,42.518,0,0,1-11.22-3.582A44.264,44.264,0,0,1,8.783,71.073,43.631,43.631,0,0,1,.693,52.335C.4,50.631.226,48.906,0,47.188V41.961l.16-.839c.473-2.763.712-5.593,1.452-8.283A44.519,44.519,0,0,1,87.949,54.533" transform="translate(0 0)" fill="#eb4a4a"/>
  </g>
</svg>
