<svg id="Group_8" data-name="Group 8" xmlns="http://www.w3.org/2000/svg" xmlns:xlink="http://www.w3.org/1999/xlink" width="94.831" height="75.943" viewBox="0 0 94.831 75.943">
  <defs>
    <clipPath id="clip-path">
      <rect id="Rectangle_9" data-name="Rectangle 9" width="94.831" height="75.943" fill="#eb4a4a"/>
    </clipPath>
  </defs>
  <g id="Group_7" data-name="Group 7" clip-path="url(#clip-path)">
    <path id="Path_7" data-name="Path 7" d="M92.691,3.581A9.53,9.53,0,0,0,85.647.023c-.307-.016-.617-.014-.927-.014Q47.4.006,10.088,0A9.687,9.687,0,0,0,1.9,3.894a9.037,9.037,0,0,0-1.9,5.589Q0,14.439,0,19.391q0,23.379,0,46.76a9.53,9.53,0,0,0,7.421,9.487,13.084,13.084,0,0,0,2.848.256c24.754.014,49.508-.035,74.261.049,5.09.016,9.385-3.3,10.162-8.018a1.7,1.7,0,0,1,.133-.335V8.323a11.064,11.064,0,0,0-2.14-4.741m-7.368,62.76H75.9V24.691c-.524.314-.841.5-1.153.7q-13.207,8.366-26.4,16.755a1.475,1.475,0,0,1-1.877-.028q-13.228-8.429-26.491-16.8c-.277-.177-.559-.349-.994-.622V66.353H9.52V9.5c1.122,0,2.256.072,3.377-.016a6.54,6.54,0,0,1,4.147,1.148C26.852,16.752,36.712,22.8,46.537,28.9a1.439,1.439,0,0,0,1.8-.026Q63.506,19.462,78.7,10.085a3.7,3.7,0,0,1,2.168-.6c1.469.049,2.943.014,4.455.014Z" transform="translate(0 0)" fill="#eb4a4a"/>
  </g>
</svg>
