<svg id="Group_22" data-name="Group 22" xmlns="http://www.w3.org/2000/svg" xmlns:xlink="http://www.w3.org/1999/xlink" width="271.47" height="307.46" viewBox="0 0 271.47 307.46">
  <defs>
    <clipPath id="clip-path">
      <rect id="Rectangle_19" data-name="Rectangle 19" width="271.47" height="307.46" fill="#eb4a4a"/>
    </clipPath>
  </defs>
  <g id="Group_21" data-name="Group 21" clip-path="url(#clip-path)">
    <path id="Path_12" data-name="Path 12" d="M0,0V9.75a9.2,9.2,0,0,1,.72,2.27c.55,9.14.97,18.29,1.55,27.43C2.95,49.93,3.75,60.39,4.5,70.86S6.01,91.8,6.75,102.28Q7.89,118.36,9,134.44q1.125,15.885,2.26,31.78,1.11,15.525,2.24,31.04c.76,10.72,1.49,21.44,2.26,32.16q1.095,15.345,2.25,30.67a43.526,43.526,0,0,0,.87,7.68c.27,1.05,1.77,2.15,2.94,2.54,22.47,7.43,44.98,14.75,67.47,22.12q21.735,7.125,43.44,14.34c.29.1.5.45.75.69h4.5c9.86-3.44,19.67-7,29.57-10.28,22.48-7.44,45-14.72,67.5-22.08,5.1-1.67,10.2-3.32,15.25-5.14.94-.34,2.23-1.35,2.31-2.16.68-6.38,1.12-12.79,1.61-19.18q1.5-19.95,2.97-39.89.45-5.91.77-11.84c.52-9.02.95-18.05,1.53-27.06.68-10.48,1.48-20.95,2.23-31.42s1.51-20.94,2.25-31.41c.76-10.84,1.49-21.69,2.26-32.54.73-10.34,1.5-20.69,2.24-31.03.77-10.85,1.51-21.69,2.3-32.54.03-.39.45-.76.7-1.14V0ZM220.16,80.84H86.76c1.09,15.67,2.16,30.9,3.25,46.51H216.69c-.27,5.8-.42,11.19-.8,16.57-.34,4.92-1.06,9.8-1.39,14.71-.6,9.02-.96,18.05-1.55,27.07-.67,10.36-1.45,20.71-2.24,31.05-.43,5.66-.9,11.31-1.58,16.94a3.668,3.668,0,0,1-2.12,2.42q-34.53,11.625-69.15,23a8.065,8.065,0,0,1-4.65-.26q-34.275-11.25-68.49-22.7c-.96-.32-2.3-1.39-2.37-2.19-.9-10.96-1.6-21.94-2.33-32.92a8.075,8.075,0,0,1,.2-1.41H94.75c.2.37.4.57.41.78.37,9.03.38,9.01,8.99,11.85,9.86,3.24,19.69,6.55,29.57,9.73a6.542,6.542,0,0,0,3.79.12c11.86-3.81,23.64-7.83,35.52-11.56,3.03-.95,2.97-3.31,3.12-5.37.67-9.02,1.02-18.05,1.6-27.07.32-4.91.85-9.8,1.34-15.22H57.14c-.57-8.13-1.07-15.75-1.65-23.37-.97-12.67-2-25.35-2.97-38.02-.32-4.32-.53-8.65-.77-12.98-.51-9.02-.94-18.05-1.54-27.07-.35-5.12-.98-10.22-1.5-15.52H222.59c-.81,11.63-1.61,23.06-2.43,34.91" fill="#eb4a4a"/>
  </g>
</svg>
