<svg xmlns="http://www.w3.org/2000/svg" xmlns:xlink="http://www.w3.org/1999/xlink" width="84" height="84" viewBox="0 0 84 84">
  <defs>
    <clipPath id="clip-path">
      <rect id="Rectangle_6" data-name="Rectangle 6" width="84" height="84" fill="#eb4a4a"/>
    </clipPath>
  </defs>
  <g id="Group_2" data-name="Group 2" transform="translate(0 0.044)">
    <g id="Group_1" data-name="Group 1" transform="translate(0 -0.044)" clip-path="url(#clip-path)">
      <path id="Path_2" data-name="Path 2" d="M83.148,28.411a40.663,40.663,0,0,0-1.487-11.15C78.746,7.85,72.273,2.39,62.648.862,58.74.242,54.716.348,50.745.12c-.43-.026-.856-.08-1.284-.12H33.842c-2.377.109-4.759.15-7.128.345a49.784,49.784,0,0,0-8.281.953C8.324,3.9,2.571,10.628.849,20.819c-.446,2.631-.491,5.33-.693,8C.068,30,.05,31.191,0,32.378V50.925c.052,1.349.119,2.7.153,4.048A39.562,39.562,0,0,0,1.8,66.584c3.016,9.1,9.435,14.342,18.771,15.844,3.932.633,7.985.524,11.983.755.43.026.856.08,1.284.12H49.461c.347-.039.691-.1,1.04-.116,3.6-.172,7.206-.2,10.787-.535,10.714-1,18.585-8.078,20.884-18.572A60.234,60.234,0,0,0,83.2,51.887c0-.43.067-.857.1-1.287V32.7c-.052-1.43-.12-2.86-.155-4.292M76.6,55.686a28.142,28.142,0,0,1-1.529,9.59c-2.4,6.454-7.175,10.177-13.888,10.787-6.737.61-13.537.651-20.31.69-5.8.033-11.6-.225-17.4-.473A16.541,16.541,0,0,1,7.364,61.893a69.515,69.515,0,0,1-.719-9.957c-.078-8.187-.033-16.377.063-24.565A26.51,26.51,0,0,1,8.514,17.266a15.611,15.611,0,0,1,13.6-10.039c6.493-.615,13.044-.631,18.894-.882,6.757.239,12.829.381,18.893.683a16.515,16.515,0,0,1,16.029,14.38,70.378,70.378,0,0,1,.721,10.039c.08,8.078.028,16.159-.055,24.239" transform="translate(0 0.207)" fill="#eb4a4a"/>
      <path id="Path_3" data-name="Path 3" d="M150.333,131a20.337,20.337,0,1,0,20.341,20.334A20.366,20.366,0,0,0,150.333,131m-.023,34.166A13.829,13.829,0,1,1,164.166,151.3a13.851,13.851,0,0,1-13.856,13.864" transform="translate(-108.849 -109.479)" fill="#eb4a4a"/>
      <path id="Path_4" data-name="Path 4" d="M373.765,95.91a4.878,4.878,0,1,1-4.9-4.9,4.89,4.89,0,0,1,4.9,4.9" transform="translate(-304.785 -75.996)" fill="#eb4a4a"/>
    </g>
  </g>
</svg>
