<svg xmlns="http://www.w3.org/2000/svg" xmlns:xlink="http://www.w3.org/1999/xlink" width="350" height="350" viewBox="0 0 350 350">
  <defs>
    <clipPath id="clip-path">
      <rect id="Rectangle_18" data-name="Rectangle 18" width="350" height="350" transform="translate(0 -0.039)" fill="#eb4a4a"/>
    </clipPath>
  </defs>
  <g id="Group_27" data-name="Group 27" transform="translate(-1509 -1521)">
    <g id="Group_19" data-name="Group 19" transform="translate(1509 1521.083)">
      <g id="Group_18" data-name="Group 18" transform="translate(0 -0.044)" clip-path="url(#clip-path)">
        <path id="Path_11" data-name="Path 11" d="M0,349.917H349.917V0H0Zm190.268-72.553a54.779,54.779,0,0,1-.738,7.19,29.892,29.892,0,0,1-.875,4.684c-.7,2.342-1.03,4.8-2.387,6.944a27.121,27.121,0,0,0-1.1,2.916,42.636,42.636,0,0,1-2.132,3.773c-.775,1.239-1.631,2.433-2.479,3.627a11.3,11.3,0,0,1-1.276,1.586,62.176,62.176,0,0,1-4.9,4.529,30.315,30.315,0,0,1-7.336,4.474c-1.449.574-2.816,1.367-4.255,1.959a25.087,25.087,0,0,1-2.925.875c-1.522.428-3.044.875-4.574,1.248-.765.191-1.567.219-2.342.364-4.383.8-8.812.656-13.222.629a51.626,51.626,0,0,1-5.449-.128c-2.36-.273-4.693-.784-7.044-1.185a18.13,18.13,0,0,1-1.868-.3c-1-.292-1.977-.656-2.962-1.021-1.923-.711-3.882-1.349-5.741-2.2a53.77,53.77,0,0,1-4.921-2.706,37.462,37.462,0,0,1-3.727-2.378,46.025,46.025,0,0,1-7.7-7.062c-1.057-1.258-1.868-2.716-2.807-4.064-.7-1-1.494-1.95-2.151-2.98a37.407,37.407,0,0,1-1.977-3.545,8.878,8.878,0,0,1-.647-2.059.818.818,0,0,1,.319-.7c1.258-.784,2.551-1.494,3.809-2.251.92-.556,1.813-1.157,2.716-1.731.8-.5,1.595-1.021,2.415-1.476,1.412-.793,2.861-1.513,4.256-2.333,1.731-1.021,3.426-2.114,5.13-3.18,2.05-1.294,4.091-2.606,6.169-3.864a6.1,6.1,0,0,1,1.394-.465c.565.92,1.066,1.74,1.576,2.551.492.775,1.03,1.513,1.467,2.305a31.419,31.419,0,0,0,7.308,8.566A15.353,15.353,0,0,0,132.9,291.8c.939.428,1.9.793,2.861,1.185a.535.535,0,0,0,.21.036c1.759-.018,3.527-.046,5.285-.064.146-.009.292-.027.437-.027a16.26,16.26,0,0,0,4.574-.392,13.07,13.07,0,0,0,8.9-6.8c.875-1.285,1.094-2.788,1.768-4.137.337-.674.036-1.668.337-2.378.638-1.54.31-3.1.31-4.638q.027-40.9.009-81.784V162.083c0-1.476.009-1.485,1.449-1.485h31.228v1.422q.014,57.668-.009,115.345m131.975,4.629c-.082.538.018,1.094-.073,1.631-.155.993-.383,1.977-.6,2.962-.283,1.258-.656,2.5-.884,3.773a16.726,16.726,0,0,1-1.886,5.212c-.911,1.613-1.522,3.381-2.442,4.984a23.457,23.457,0,0,1-2.551,3.454,48.291,48.291,0,0,1-4.091,4.529,51.27,51.27,0,0,1-5.1,3.964,32.544,32.544,0,0,1-3.39,2.014c-1.9,1.03-3.809,2.059-5.75,3.007a31.681,31.681,0,0,1-3.034,1.1c-1.121.41-2.223.866-3.353,1.23a17.474,17.474,0,0,1-2.633.683c-2.178.365-4.365.647-6.552.975-.683.1-1.358.319-2.05.355-2.187.128-4.392.173-6.579.3-.875.055-1.731.31-2.6.328-.611.009-1.212-.31-1.832-.328-1.376-.046-2.77.082-4.146-.018-2.479-.164-4.957-.392-7.417-.693a23.33,23.33,0,0,1-5.121-.957c-1.285-.465-2.688-.264-3.937-1.075-.911-.592-2.233-.51-3.326-.847a32.13,32.13,0,0,1-3.463-1.367c-1.832-.838-3.663-1.686-5.458-2.615-1.677-.875-3.308-1.859-4.948-2.8a21.451,21.451,0,0,1-4.656-3.39c-1.23-1.248-2.788-2.169-4.091-3.362a52.614,52.614,0,0,1-3.763-3.909c-1.039-1.176-2.023-2.406-2.962-3.663-.62-.838-1.094-1.777-1.64-2.67-.018-.027-.009-.073-.027-.1-.838-1.349-1.7-2.67-2.506-4.037a4.559,4.559,0,0,1-.529-1.567c-.109-.8.556-.729,1.093-.957a21.325,21.325,0,0,0,2.533-1.713c.519-.337,1.13-.538,1.668-.866,1.722-1.021,3.4-2.114,5.139-3.107,1.23-.693,2.551-1.248,3.8-1.9.629-.337,1.2-.775,1.813-1.157,1.376-.884,2.743-1.8,4.155-2.633,1.649-.975,3.317-1.923,5.021-2.8a1.107,1.107,0,0,1,1.74.565,17.377,17.377,0,0,0,2,2.907c1.1,1.431,2.178,2.9,3.4,4.219a46.334,46.334,0,0,0,5.139,5.048,37.8,37.8,0,0,0,5.8,3.454,26.7,26.7,0,0,0,4.675,1.768c.866.283,1.768.182,2.57.538,2.442,1.084,5.176.328,7.682,1.166a6.007,6.007,0,0,0,2.442-.2,9.4,9.4,0,0,1,2.634-.428c1.7.246,3.144-.592,4.693-.9a20.743,20.743,0,0,0,4.465-1.777,14.147,14.147,0,0,0,4.219-3.071c.62-.629,1.513-1.148,1.813-1.9.738-1.832,2.223-3.353,2.16-5.522-.027-1.312.365-2.652.282-3.955a15.711,15.711,0,0,0-2-6.725,18.817,18.817,0,0,0-4.465-4.921c-1.677-1.467-3.864-2.369-5.841-3.5-.683-.392-1.394-.747-2.1-1.093-1.194-.592-2.4-1.176-3.6-1.731-1.8-.847-3.59-1.686-5.413-2.488-1-.428-2.059-.72-3.062-1.157-1.668-.72-3.308-1.531-4.975-2.26-1.494-.656-3.034-1.194-4.5-1.886-1.586-.756-3.107-1.658-4.675-2.442-1.212-.611-2.469-1.1-3.672-1.722a21.006,21.006,0,0,1-2.2-1.367c-.82-.565-1.586-1.212-2.424-1.75-1.057-.683-2.233-1.194-3.244-1.941a45.4,45.4,0,0,1-4.41-3.618,57.969,57.969,0,0,1-5.413-5.586,27.65,27.65,0,0,1-4.31-6.661c-.556-1.349-1.3-2.615-1.9-3.946a23.746,23.746,0,0,1-.92-2.6c-.374-1.239-.738-2.479-1.057-3.736a24.511,24.511,0,0,1-.51-2.588c-.155-1.048-.237-2.114-.365-3.162-.082-.747-.282-1.485-.292-2.233-.036-2.916-.073-5.832.009-8.748a27.317,27.317,0,0,1,.611-3.481c.146-.875.173-1.786.374-2.652a34.825,34.825,0,0,1,1.367-5.039,47.6,47.6,0,0,1,2.962-5.95c.884-1.522,2.069-2.861,2.989-4.365a28.752,28.752,0,0,1,7.572-7.709,32.85,32.85,0,0,1,3.435-2.551c1.64-.948,3.408-1.677,5.13-2.5,1.276-.6,2.57-1.194,3.864-1.786a4.305,4.305,0,0,1,.711-.219c2.032-.592,4.064-1.221,6.114-1.75a17.633,17.633,0,0,1,2.77-.392q5.112-.478,10.206-.92l.027.3c2.287,0,4.593-.173,6.862.055a51.116,51.116,0,0,1,7.591,1.34,83.949,83.949,0,0,1,8.994,2.761,38.906,38.906,0,0,1,4.939,2.77c.939.529,1.9,1.011,2.834,1.522a3.967,3.967,0,0,1,.775.574c2.643,2.479,5.349,4.9,7.891,7.481a29.311,29.311,0,0,1,2.87,3.982c1.048,1.522,2.078,3.044,3.107,4.584.365.547.556.975-.237,1.485-2.5,1.6-4.921,3.326-7.39,4.975-1.157.775-2.324,1.558-3.536,2.233a64.359,64.359,0,0,0-5.887,3.818c-1.494,1.048-3.153,1.868-4.729,2.807-.9.538-1.786,1.112-2.67,1.686-.556.365-.838.064-1.121-.392-.838-1.33-1.695-2.643-2.533-3.973a19.814,19.814,0,0,0-4.338-4.8c-.929-.738-2.032-1.248-3-1.941-1.987-1.422-4.41-1.631-6.607-2.46a1.9,1.9,0,0,0-.756-.036c-1.349.009-2.7.027-4.046.036a14.608,14.608,0,0,0-3.645.364,18.938,18.938,0,0,0-4.438,1.613,12.425,12.425,0,0,0-5.376,5.467,14.716,14.716,0,0,0-1.658,8.229,15.042,15.042,0,0,0,6.953,11.391c1.349.756,2.588,1.74,3.937,2.5,1.522.857,3.107,1.576,4.675,2.342,1.677.829,3.344,1.677,5.048,2.442,1.157.529,2.4.893,3.572,1.394,2.488,1.075,4.939,2.214,7.418,3.29,1.258.538,2.579.939,3.818,1.513,1.567.729,3.089,1.576,4.638,2.36,1.294.656,2.615,1.276,3.9,1.95.647.346,1.239.784,1.859,1.175q3.786,2.447,7.563,4.884c.255.173.483.4.729.592a50.3,50.3,0,0,1,8.247,7.746,44.2,44.2,0,0,1,3.6,4.948,50.284,50.284,0,0,1,2.251,4.811,39.285,39.285,0,0,1,1.8,3.946,29.965,29.965,0,0,1,1.011,4.647c.292,1.868.447,3.745.656,5.613.137,1.157.273,2.315.392,3.481a29.215,29.215,0,0,1,.328,4.073,32.68,32.68,0,0,1-.638,3.718" transform="translate(0 0.044)" fill="#eb4a4a"/>
      </g>
    </g>
  </g>
</svg>
