<svg id="Group_6" data-name="Group 6" xmlns="http://www.w3.org/2000/svg" xmlns:xlink="http://www.w3.org/1999/xlink" width="85.031" height="85.044" viewBox="0 0 85.031 85.044">
  <defs>
    <clipPath id="clip-path">
      <rect id="Rectangle_8" data-name="Rectangle 8" width="85.031" height="85.044" fill="#eb4a4a"/>
    </clipPath>
  </defs>
  <g id="Group_5" data-name="Group 5" clip-path="url(#clip-path)">
    <path id="Path_6" data-name="Path 6" d="M76.211,16.673A41.052,41.052,0,0,0,51.448,1,41.255,41.255,0,0,0,16.935,8.637,41.223,41.223,0,0,0,.984,33.59c-.4,1.83-.557,3.712-.83,5.569-.044.293-.1.586-.154.882v4.484c.218,1.776.364,3.567.668,5.328A40.969,40.969,0,0,0,7.578,66.643,1.72,1.72,0,0,1,7.8,68.387c-1.666,4.883-3.3,9.779-5,14.835.379-.114.647-.193.915-.279,4.864-1.556,9.733-3.1,14.589-4.684a1.705,1.705,0,0,1,1.608.22,41.538,41.538,0,0,0,16.827,6.154c1.2.168,2.412.275,3.619.41h4.65c1.612-.216,3.236-.376,4.835-.661A41.733,41.733,0,0,0,74.5,70.492,41.084,41.084,0,0,0,84.813,46.786a41.365,41.365,0,0,0-8.6-30.112M59.916,65.759a28.611,28.611,0,0,1-3.694.728c-1.739-.381-3.652-.682-5.5-1.225a44.812,44.812,0,0,1-16.873-8.747A66.458,66.458,0,0,1,22.378,43.468a23.863,23.863,0,0,1-4.315-9.775c-.8-5.162.507-9.7,4.659-13.079,1.863-1.516,4.193-1.393,6.426-.838a1.948,1.948,0,0,1,1.061,1.061c1.527,3.492,3,7,4.471,10.523.487,1.169-.141,2.1-.817,2.957-.722.909-1.522,1.753-2.294,2.623-1.217,1.377-1.264,1.832-.312,3.369A33.516,33.516,0,0,0,47.3,54.285c1.905.776,2.839.547,4.11-1.077C52.263,52.12,53.07,51,53.9,49.888c1.1-1.477,2.051-1.778,3.725-1C60.775,50.363,63.9,51.9,67.039,53.4a1.774,1.774,0,0,1,1.1,1.847c-.173,5.553-2.213,8.454-8.225,10.515" transform="translate(0 0)" fill="#eb4a4a"/>
  </g>
</svg>
