<svg id="Group_17" data-name="Group 17" xmlns="http://www.w3.org/2000/svg" xmlns:xlink="http://www.w3.org/1999/xlink" width="316.815" height="349.956" viewBox="0 0 316.815 349.956">
  <defs>
    <clipPath id="clip-path">
      <rect id="Rectangle_17" data-name="Rectangle 17" width="316.815" height="349.956" fill="#eb4a4a"/>
    </clipPath>
  </defs>
  <g id="Group_16" data-name="Group 16" clip-path="url(#clip-path)">
    <path id="Path_9" data-name="Path 9" d="M315.206,227.991c-3.955-16.641-12.8-30.758-23.121-44.073-2.925-3.773-6.06-7.382-9.223-11.228,3.308-4.265,6.726-8.476,9.925-12.85,8.585-11.747,15.83-24.224,19.248-38.513,6.635-27.741-6.808-49.049-34.932-55.7-17.753-4.2-35.5-2.889-53.2.283-2.734.492-3.746.073-4.921-2.652-4.374-10.1-8.539-20.387-14.016-29.892C195.5,16.942,182.97,3.764,163.175,0h-9.569c-24.187,4.967-36.791,22.793-47.153,42.87-3.837,7.446-6.79,15.356-10.289,23.358-5.377-.738-11.064-1.668-16.8-2.287C62.69,62.145,46.095,62.2,30.3,68.752,8.812,77.656-.657,96.238,4.246,119c3.782,17.589,13.06,32.334,23.859,46.305,1.877,2.424,3.864,4.766,5.805,7.163-4.475,5.678-9.077,11.155-13.3,16.924-8.439,11.547-15.429,23.868-18.883,37.93-6.5,26.511,5.559,47.4,31.8,54.963,14.591,4.21,29.455,4.128,44.364,2.36,5.96-.7,11.893-1.741,17.7-2.616,3.427,8.02,6.58,16.049,10.244,23.841a102.6,102.6,0,0,0,19.521,28.634,52.869,52.869,0,0,0,28.252,15.447h9.569c24.214-4.94,36.773-22.811,47.144-42.87,3.536-6.844,6.07-14.2,9.059-21.316.519-1.239.993-2.5,1.431-3.6,8.548,1.085,16.86,2.406,25.217,3.126,13.123,1.139,26.165.538,38.842-3.527,25.016-8.029,36.426-28.2,30.339-53.778M69.462,264.864c-9.442.838-18.874.665-28.151-1.659-1.212-.31-2.424-.629-3.609-1.03-14.217-4.775-20.022-14.609-16.2-29.108a76.534,76.534,0,0,1,7.965-19.439c5.368-9.05,11.866-17.425,17.744-25.9,11.957,9.87,23.011,18.965,34.02,28.115a4.031,4.031,0,0,1,1.349,2.187c2.342,14.563,4.621,29.136,7.017,44.337-6.471.82-13.278,1.886-20.132,2.5m-7.254-91.955c6.243-5.477,11.939-10.462,18.154-15.921v32.252c-6.279-5.65-12.021-10.818-18.154-16.331m20.9-45.057a5.071,5.071,0,0,1-1.741,2.707C70.41,139.445,59.4,148.267,47.845,157.544c-4.11-5.723-8.74-11.729-12.877-18.054-5.049-7.746-9.041-16.031-10.854-25.226-2.579-13.078,2.388-22.282,14.9-27.021,10-3.782,20.451-4.274,30.958-3.545,6.79.474,13.543,1.458,20.086,2.187-2.369,14.39-4.611,28.188-6.954,41.967M206.227,90.715c1.65,7.765,3.208,15.147,4.821,22.747a5.218,5.218,0,0,1-1.358-.21c-8.421-4.894-16.833-9.8-26.074-15.183,7.856-2.552,15.01-4.885,22.61-7.355m-62.91-63.9c10.043-8.5,19.84-8.576,29.883-.128a70.7,70.7,0,0,1,10.973,12.048c6.434,8.685,13.688,24.205,15.7,32.407-7.91,2.7-15.857,5.3-23.731,8.138-5.231,1.886-10.326,4.156-15.538,6.088a6,6,0,0,1-3.819.2c-6.607-2.452-13.078-5.258-19.694-7.646s-13.351-4.438-20.551-6.8c6.37-16.541,12.987-32.635,26.775-44.31M110.554,90.7c7.6,2.479,14.755,4.821,22.7,7.418-9.478,5.423-18.227,10.426-27.623,15.812,1.7-8.065,3.272-15.447,4.921-23.23m-5.477,141.887c9.815,5.723,18.947,11.036,28.68,16.714-8.075,2.743-15.639,5.3-23.741,8.056-1.686-8.466-3.235-16.231-4.939-24.77m94.315,48.338c-4.876,13.069-10.617,25.691-19.895,36.308a50.257,50.257,0,0,1-8.831,7.974c-8.193,5.751-16.432,5.978-24.388-.018a68.3,68.3,0,0,1-12.9-12.987c-8.02-10.48-12.978-22.61-17.243-34.74,13.971-5.386,27.523-10.635,41.1-15.812a3.842,3.842,0,0,1,2.534.082c13.479,5.131,26.939,10.335,40.764,15.657-.273.848-.647,2.215-1.139,3.536m7.373-23.613c-7.947-2.661-15.511-5.195-23.759-7.965,9.7-5.669,18.792-10.982,28.707-16.769-1.722,8.594-3.272,16.359-4.949,24.734m8.248-54.936a5.842,5.842,0,0,1-2.77,5.031,385.97,385.97,0,0,1-51.609,29.919,6.1,6.1,0,0,1-4.6-.064,355.955,355.955,0,0,1-51.5-30.083,7,7,0,0,1-2.616-4.6c-.6-9.2-.857-18.418-1.285-29.026.483-9.2.975-19.767,1.7-30.32a5.588,5.588,0,0,1,2.169-3.737,356.115,356.115,0,0,1,51.8-29.546,5.807,5.807,0,0,1,4.338.027,358.6,358.6,0,0,1,51.491,29.4,6.129,6.129,0,0,1,2.342,3.992c1.886,19.649,1.7,39.325.547,59.01m11.428-116.16c15.93-2.725,31.961-4.684,47.919-.1C290.5,90.743,296.25,101.2,291.93,117.4c-3.563,13.369-11.118,24.57-19.448,35.324-1.312,1.7-2.734,3.317-3.8,4.6-11.355-9.123-22.519-18.063-33.638-27.085a4.513,4.513,0,0,1-1.394-2.543Q229.9,107.411,226.3,87.106a3.355,3.355,0,0,1,.137-.893m28.133,86.669c-6.042,5.468-11.793,10.663-18.254,16.5V156.943c6.288,5.486,12.057,10.517,18.254,15.939m19.466,90.706c-12.094,2.752-34.595,1.941-47.29-1.777,1.148-5.732,2.442-11.465,3.408-17.252,1.422-8.521,2.552-17.088,3.937-25.618a6.112,6.112,0,0,1,1.832-3.363c10.508-9.059,21.1-18.017,31.669-27a13.283,13.283,0,0,1,1.157-.738c10.462,12.248,20.05,24.779,25.217,40.063,6.516,19.266-.191,31.186-19.931,35.688" transform="translate(0)" fill="#eb4a4a"/>
    <path id="Path_10" data-name="Path 10" d="M202.322,188.8a31.6,31.6,0,1,1-31.46-31.478,31.44,31.44,0,0,1,31.46,31.478" transform="translate(-12.335 -13.947)" fill="#eb4a4a"/>
  </g>
</svg>
